<mxfile host="app.diagrams.net" modified="2024-03-19T19:01:51.568Z" agent="Mozilla/5.0 (Windows NT 10.0; Win64; x64; rv:124.0) Gecko/20100101 Firefox/124.0" version="23.1.6" etag="kfdz2XgfZsYvTeLjLtTY" type="github">
  <diagram name="Page-1" id="Sbk3Eo_ly9QSLVSdRJkZ">
    <mxGraphModel>
      <root>
        <mxCell id="0" />
        <mxCell id="1" parent="0" />
      </root>
    </mxGraphModel>
  </diagram>
</mxfile>
